<?xml version="1.0" encoding="UTF-8" standalone="no"?><svg xmlns="http://www.w3.org/2000/svg" xmlns:xlink="http://www.w3.org/1999/xlink" contentScriptType="application/ecmascript" contentStyleType="text/css" height="506px" preserveAspectRatio="none" style="width:899px;height:506px;" version="1.1" viewBox="0 0 899 506" width="899px" zoomAndPan="magnify"><defs/><g><!--MD5=[4c4b63aa0119a823331c6b9916b4b18a]
entity MP--><rect fill="#FEECCD" height="36.2969" rx="5" ry="5" style="stroke: #7A003C; stroke-width: 1.0;" width="141" x="113.5" y="305"/><rect fill="#FEECCD" height="5" style="stroke: #7A003C; stroke-width: 1.0;" width="10" x="108.5" y="310"/><rect fill="#FEECCD" height="5" style="stroke: #7A003C; stroke-width: 1.0;" width="10" x="108.5" y="331.2969"/><text fill="#000000" font-family="sans-serif" font-size="14" lengthAdjust="spacingAndGlyphs" textLength="121" x="123.5" y="327.9951">MagData Platform</text><!--MD5=[8b2ff9d1f7829004ecac6fa4ee22dbd9]
entity SM--><rect fill="#FEECCD" height="36.2969" rx="5" ry="5" style="stroke: #7A003C; stroke-width: 1.0;" width="128" x="423" y="305"/><rect fill="#FEECCD" height="5" style="stroke: #7A003C; stroke-width: 1.0;" width="10" x="418" y="310"/><rect fill="#FEECCD" height="5" style="stroke: #7A003C; stroke-width: 1.0;" width="10" x="418" y="331.2969"/><text fill="#000000" font-family="sans-serif" font-size="14" lengthAdjust="spacingAndGlyphs" textLength="108" x="433" y="327.9951">Import Manager</text><!--MD5=[efcd70e4ce0306fcb0193adfa51ee84a]
entity IM--><rect fill="#FEECCD" height="36.2969" rx="5" ry="5" style="stroke: #7A003C; stroke-width: 1.0;" width="169" x="719.5" y="305"/><rect fill="#FEECCD" height="5" style="stroke: #7A003C; stroke-width: 1.0;" width="10" x="714.5" y="310"/><rect fill="#FEECCD" height="5" style="stroke: #7A003C; stroke-width: 1.0;" width="10" x="714.5" y="331.2969"/><text fill="#000000" font-family="sans-serif" font-size="14" lengthAdjust="spacingAndGlyphs" textLength="149" x="729.5" y="327.9951">Visualization Manager</text><!--MD5=[cc78246f35cf4a7527ee40fb15455c56]
entity MM--><rect fill="#FEECCD" height="36.2969" rx="5" ry="5" style="stroke: #7A003C; stroke-width: 1.0;" width="131" x="118.5" y="8"/><rect fill="#FEECCD" height="5" style="stroke: #7A003C; stroke-width: 1.0;" width="10" x="113.5" y="13"/><rect fill="#FEECCD" height="5" style="stroke: #7A003C; stroke-width: 1.0;" width="10" x="113.5" y="34.2969"/><text fill="#000000" font-family="sans-serif" font-size="14" lengthAdjust="spacingAndGlyphs" textLength="111" x="128.5" y="30.9951">Editing Manager</text><!--MD5=[987c1d78ec6669b64fb218560bdf9922]
entity EM--><rect fill="#FEECCD" height="36.2969" rx="5" ry="5" style="stroke: #7A003C; stroke-width: 1.0;" width="128" x="268" y="445.5"/><rect fill="#FEECCD" height="5" style="stroke: #7A003C; stroke-width: 1.0;" width="10" x="263" y="450.5"/><rect fill="#FEECCD" height="5" style="stroke: #7A003C; stroke-width: 1.0;" width="10" x="263" y="471.7969"/><text fill="#000000" font-family="sans-serif" font-size="14" lengthAdjust="spacingAndGlyphs" textLength="108" x="278" y="468.4951">Export Manager</text><!--MD5=[ae4d41e10e25b252562e566b0f17681b]
entity EP--><rect fill="#FEECCD" height="52.5938" rx="5" ry="5" style="stroke: #7A003C; stroke-width: 1.0;" width="195" x="564.5" y="437"/><rect fill="#FEECCD" height="5" style="stroke: #7A003C; stroke-width: 1.0;" width="10" x="559.5" y="442"/><rect fill="#FEECCD" height="5" style="stroke: #7A003C; stroke-width: 1.0;" width="10" x="559.5" y="479.5938"/><text fill="#000000" font-family="sans-serif" font-size="14" lengthAdjust="spacingAndGlyphs" textLength="73" x="574.5" y="459.9951">«external»</text><text fill="#000000" font-family="sans-serif" font-size="14" lengthAdjust="spacingAndGlyphs" textLength="175" x="574.5" y="476.292">External Printing Software</text><!--MD5=[d8de8f4f27ceab9e9a121069cbdfd4bf]
entity Access--><ellipse cx="339" cy="323" fill="#7A003C" rx="8" ry="8" style="stroke: #7A003C; stroke-width: 2.0;"/><text fill="#000000" font-family="sans-serif" font-size="14" lengthAdjust="spacingAndGlyphs" textLength="73" x="302.5" y="352.9951">Access file</text><!--MD5=[0ec1693da78d75ffb9cbdf83c0511098]
entity Slice--><ellipse cx="487" cy="164" fill="#7A003C" rx="8" ry="8" style="stroke: #7A003C; stroke-width: 2.0;"/><text fill="#000000" font-family="sans-serif" font-size="14" lengthAdjust="spacingAndGlyphs" textLength="97" x="438.5" y="193.9951">Execute Voxel</text><text fill="#000000" font-family="sans-serif" font-size="14" lengthAdjust="spacingAndGlyphs" textLength="44" x="438.5" y="210.292">Slicing</text><!--MD5=[f474ca078bd78d29e43d9c9138696efb]
entity Image--><ellipse cx="635" cy="323" fill="#7A003C" rx="8" ry="8" style="stroke: #7A003C; stroke-width: 2.0;"/><text fill="#000000" font-family="sans-serif" font-size="14" lengthAdjust="spacingAndGlyphs" textLength="89" x="590.5" y="352.9951">Generate 3D</text><text fill="#000000" font-family="sans-serif" font-size="14" lengthAdjust="spacingAndGlyphs" textLength="66" x="590.5" y="369.292">Rendition</text><!--MD5=[f210247062ec0ffb5ea48647cbc78065]
entity Interaction--><ellipse cx="804" cy="164" fill="#7A003C" rx="8" ry="8" style="stroke: #7A003C; stroke-width: 2.0;"/><text fill="#000000" font-family="sans-serif" font-size="14" lengthAdjust="spacingAndGlyphs" textLength="157" x="725.5" y="193.9951">Manage Visuals During</text><text fill="#000000" font-family="sans-serif" font-size="14" lengthAdjust="spacingAndGlyphs" textLength="109" x="725.5" y="210.292">User Interaction</text><!--MD5=[e90c528ec58840348ba29859f12a3c2f]
entity Magnetize--><ellipse cx="184" cy="164" fill="#7A003C" rx="8" ry="8" style="stroke: #7A003C; stroke-width: 2.0;"/><text fill="#000000" font-family="sans-serif" font-size="14" lengthAdjust="spacingAndGlyphs" textLength="93" x="137.5" y="193.9951">Modify Voxels</text><!--MD5=[e055e7c7a3a652c48d3f31170bf2197e]
entity Modify--><ellipse cx="334" cy="26" fill="#7A003C" rx="8" ry="8" style="stroke: #7A003C; stroke-width: 2.0;"/><text fill="#000000" font-family="sans-serif" font-size="14" lengthAdjust="spacingAndGlyphs" textLength="118" x="275" y="55.9951">Update Metadata</text><!--MD5=[7f68e42f4b41d82b0f515ea73609512c]
entity Print--><ellipse cx="184" cy="463.5" fill="#7A003C" rx="8" ry="8" style="stroke: #7A003C; stroke-width: 2.0;"/><text fill="#000000" font-family="sans-serif" font-size="14" lengthAdjust="spacingAndGlyphs" textLength="52" x="158" y="493.4951">Get File</text><!--MD5=[4f8ceaf617da225fb01a8e9682419e55]
entity Export--><ellipse cx="480" cy="463.5" fill="#7A003C" rx="8" ry="8" style="stroke: #7A003C; stroke-width: 2.0;"/><text fill="#000000" font-family="sans-serif" font-size="14" lengthAdjust="spacingAndGlyphs" textLength="71" x="444.5" y="493.4951">Export File</text><!--MD5=[fee662a292a0353a69bd162820bae93b]
entity User--><ellipse cx="22" cy="293.5" fill="#FEECCD" rx="8" ry="8" style="stroke: #7A003C; stroke-width: 1.5;"/><path d="M22,301.5 L22,328.5 M9,309.5 L35,309.5 M22,328.5 L9,343.5 M22,328.5 L35,343.5 " fill="none" style="stroke: #7A003C; stroke-width: 1.5;"/><text fill="#7A003C" font-family="sans-serif" font-size="14" lengthAdjust="spacingAndGlyphs" textLength="32" x="6" y="358.9951">User</text><!--MD5=[1b6a872adad3e87769e24b94b650bf45]
link User to MP--><path d="M38.2,323 C54.11,323 76,323 76,323 C76,323 92.94,323 107.85,323 " fill="none" id="User-&gt;MP" style="stroke: #7A003C; stroke-width: 1.0; stroke-dasharray: 7.0,7.0;"/><polygon fill="#7A003C" points="113.21,323,104.21,319,108.21,323,104.21,327,113.21,323" style="stroke: #7A003C; stroke-width: 1.0;"/><!--MD5=[ddf223149d19f1dca77646fdf58c37e9]
reverse link Magnetize to MP--><path d="M184,178.13 C184,206.43 184,273.18 184,304.8 " fill="none" id="Magnetize&lt;-MP" style="stroke: #7A003C; stroke-width: 1.0; stroke-dasharray: 7.0,7.0;"/><polygon fill="#7A003C" points="184,173,180,182,184,178,188,182,184,173" style="stroke: #7A003C; stroke-width: 1.0;"/><!--MD5=[d97d541ed9370f507a4e5debe502de63]
link MM to Magnetize--><path d="M184,44.22 C184,73.82 184,133.21 184,154.86 " fill="none" id="MM-Magnetize" style="stroke: #7A003C; stroke-width: 1.0;"/><!--MD5=[9ae9f61b819273f957a63bfe1786e784]
link MM to Modify--><path d="M249.55,26 C264.22,26 284,26 284,26 C284,26 304.94,26 319.71,26 " fill="none" id="MM-&gt;Modify" style="stroke: #7A003C; stroke-width: 1.0; stroke-dasharray: 7.0,7.0;"/><polygon fill="#7A003C" points="324.83,26,315.83,22,319.83,26,315.83,30,324.83,26" style="stroke: #7A003C; stroke-width: 1.0;"/><!--MD5=[75b9d942616afbe7f9cafd6333c4a001]
link MP to Access--><path d="M254.61,323 C269.36,323 287.33,323 287.33,323 C287.33,323 308.97,323 324.24,323 " fill="none" id="MP-&gt;Access" style="stroke: #7A003C; stroke-width: 1.0; stroke-dasharray: 7.0,7.0;"/><polygon fill="#7A003C" points="329.52,323,320.52,319,324.52,323,320.52,327,329.52,323" style="stroke: #7A003C; stroke-width: 1.0;"/><!--MD5=[276e23d2bdc3a5a28ce92e60369d94ba]
link Access to SM--><path d="M348.05,323 C362.29,323 388.33,323 388.33,323 C388.33,323 408.33,323 422.87,323 " fill="none" id="Access-SM" style="stroke: #7A003C; stroke-width: 1.0;"/><!--MD5=[beeacb130c936db6953c44449291ea69]
reverse link Slice to SM--><path d="M487,178.13 C487,206.43 487,273.18 487,304.8 " fill="none" id="Slice&lt;-SM" style="stroke: #7A003C; stroke-width: 1.0; stroke-dasharray: 7.0,7.0;"/><polygon fill="#7A003C" points="487,173,483,182,487,178,491,182,487,173" style="stroke: #7A003C; stroke-width: 1.0;"/><!--MD5=[ef570f8abb2e5bb53a11a6c04571936c]
link SM to Image--><path d="M551.13,323 C565.67,323 585.67,323 585.67,323 C585.67,323 606.32,323 620.9,323 " fill="none" id="SM-&gt;Image" style="stroke: #7A003C; stroke-width: 1.0; stroke-dasharray: 7.0,7.0;"/><polygon fill="#7A003C" points="625.95,323,616.95,319,620.95,323,616.95,327,625.95,323" style="stroke: #7A003C; stroke-width: 1.0;"/><!--MD5=[73e879c0b2883ee9ecbfc5bb36a2266b]
link Image to IM--><path d="M644.05,323 C659.98,323 691.33,323 691.33,323 C691.33,323 705.42,323 719.5,323 " fill="none" id="Image-IM" style="stroke: #7A003C; stroke-width: 1.0;"/><!--MD5=[ff0ed92b03433e0c47e82d8d7c0e65cf]
reverse link Interaction to IM--><path d="M804,178.13 C804,206.43 804,273.18 804,304.8 " fill="none" id="Interaction&lt;-IM" style="stroke: #7A003C; stroke-width: 1.0; stroke-dasharray: 7.0,7.0;"/><polygon fill="#7A003C" points="804,173,800,182,804,178,808,182,804,173" style="stroke: #7A003C; stroke-width: 1.0;"/><!--MD5=[ed23ea9c79e83485b0b9d324fd153405]
link MP to Print--><path d="M184,341.26 C184,369.31 184,424.16 184,449.32 " fill="none" id="MP-&gt;Print" style="stroke: #7A003C; stroke-width: 1.0; stroke-dasharray: 7.0,7.0;"/><polygon fill="#7A003C" points="184,454.49,188,445.49,184,449.49,180,445.49,184,454.49" style="stroke: #7A003C; stroke-width: 1.0;"/><!--MD5=[3e8001c361e2005e940dca301a726107]
link Print to EM--><path d="M193.05,463.5 C207.29,463.5 233.33,463.5 233.33,463.5 C233.33,463.5 253.33,463.5 267.87,463.5 " fill="none" id="Print-EM" style="stroke: #7A003C; stroke-width: 1.0;"/><!--MD5=[bae99106de55d6c7ef1e0e16a745c0e8]
link EM to Export--><path d="M396.13,463.5 C410.67,463.5 430.67,463.5 430.67,463.5 C430.67,463.5 451.32,463.5 465.9,463.5 " fill="none" id="EM-&gt;Export" style="stroke: #7A003C; stroke-width: 1.0; stroke-dasharray: 7.0,7.0;"/><polygon fill="#7A003C" points="470.95,463.5,461.95,459.5,465.95,463.5,461.95,467.5,470.95,463.5" style="stroke: #7A003C; stroke-width: 1.0;"/><!--MD5=[a0cdaa93fe3d723ff9eb68daaec2b334]
link Export to EP--><path d="M489.21,463.5 C506.19,463.5 540.67,463.5 540.67,463.5 C540.67,463.5 551.66,463.5 564.3,463.5 " fill="none" id="Export-EP" style="stroke: #7A003C; stroke-width: 1.0;"/><!--MD5=[d28955447ffa7d936112d2b1be4575aa]
@startuml


skinparam nodesep 75
skinparam ranksep 75

hide empty members
hide footbox

skinparam noteFontSize 10
skinparam noteFontName Courier

skinparam monochrome  false  
skinparam shadowing   false
skinparam roundcorner 10
skinparam linetype polyline




skinparam actor {
  BorderColor     #7A003C
  BorderThickness 1
	BackgroundColor #FEECCD
  FontColor       #7A003C
}

skinparam usecase {
  BackgroundColor #FEECCD
  BorderColor     #7A003C
  BorderThickness 1
}

skinparam arrow {
		Color         #7A003C
}

skinparam class {
  BorderColor     #7A003C
  BorderThickness 1
  BackgroundColor #FEECCD
}

skinparam component {
  BorderColor     #7A003C
  BorderThickness 1
  BackgroundColor #FEECCD
}

skinparam interface {
  BorderColor     #7A003C
  BorderThickness 1
  BackgroundColor #7A003C
}


[MagData Platform] as MP
[Import Manager] as SM
[Visualization Manager] as IM
[Editing Manager] as MM
[Export Manager] as EM
[«external»\nExternal Printing Software] as EP


interface “Access file” as Access
interface “Execute Voxel \nSlicing" as Slice

interface “Generate 3D \nRendition" as Image
interface “Manage Visuals During \n User Interaction” as Interaction

interface “Modify Voxels" as Magnetize
interface “Update Metadata” as Modify

interface “Get File” as Print
interface “Export File" as Export

:User: .right.> MP
MP .up.> Magnetize
Magnetize -up- MM
MM .right.> Modify

MP .right.> Access
Access -right- SM
SM .up.> Slice

SM .right.> Image
Image -right- IM
IM .up.> Interaction

MP .down.> Print
Print -right- EM
EM .right.> Export
Export -right- EP

@enduml

PlantUML version 1.2020.02(Sun Mar 01 05:22:07 EST 2020)
(GPL source distribution)
Java Runtime: OpenJDK Runtime Environment
JVM: OpenJDK 64-Bit Server VM
Java Version: 21.0.8+9-Ubuntu-0ubuntu122.04.1
Operating System: Linux
Default Encoding: UTF-8
Language: en
Country: null
--></g></svg>