<?xml version="1.0" encoding="UTF-8" standalone="no"?><svg xmlns="http://www.w3.org/2000/svg" xmlns:xlink="http://www.w3.org/1999/xlink" contentScriptType="application/ecmascript" contentStyleType="text/css" height="1219px" preserveAspectRatio="none" style="width:2539px;height:1219px;" version="1.1" viewBox="0 0 2539 1219" width="2539px" zoomAndPan="magnify"><defs/><g><!--MD5=[ce84a4b7882e976bbeaf69b9c792c3b3]
cluster STU--><polygon fill="#FFFFFF" points="14,655,292,655,299,677.2969,302,677.2969,302,966,14,966,14,655" style="stroke: #000000; stroke-width: 1.5;"/><line style="stroke: #000000; stroke-width: 1.5;" x1="14" x2="299" y1="677.2969" y2="677.2969"/><text fill="#000000" font-family="sans-serif" font-size="14" font-weight="bold" lengthAdjust="spacingAndGlyphs" textLength="272" x="18" y="669.9951">Researchers &amp; Graduate Students</text><!--MD5=[0a699ff59dc55b75943bc266235a716b]
cluster RA--><polygon fill="#FFFFFF" points="330,579,648,579,655,601.2969,658,601.2969,658,792,330,792,330,579" style="stroke: #000000; stroke-width: 1.5;"/><line style="stroke: #000000; stroke-width: 1.5;" x1="330" x2="655" y1="601.2969" y2="601.2969"/><text fill="#000000" font-family="sans-serif" font-size="14" font-weight="bold" lengthAdjust="spacingAndGlyphs" textLength="312" x="334" y="593.9951">Research Assistants &amp; Undergraduates</text><!--MD5=[c34df8fae5bfb19387d4541339c97d13]
cluster SUP--><polygon fill="#FFFFFF" points="713,24,963,24,970,46.2969,973,46.2969,973,237,713,237,713,24" style="stroke: #000000; stroke-width: 1.5;"/><line style="stroke: #000000; stroke-width: 1.5;" x1="713" x2="970" y1="46.2969" y2="46.2969"/><text fill="#000000" font-family="sans-serif" font-size="14" font-weight="bold" lengthAdjust="spacingAndGlyphs" textLength="244" x="717" y="38.9951">Supervisors &amp; Research Leads</text><!--MD5=[0d1f0ebda7c95739c4c32a898277a677]
cluster TECH--><polygon fill="#FFFFFF" points="697.5,494,978.5,494,985.5,516.2969,988.5,516.2969,988.5,609,697.5,609,697.5,494" style="stroke: #000000; stroke-width: 1.5;"/><line style="stroke: #000000; stroke-width: 1.5;" x1="697.5" x2="985.5" y1="516.2969" y2="516.2969"/><text fill="#000000" font-family="sans-serif" font-size="14" font-weight="bold" lengthAdjust="spacingAndGlyphs" textLength="275" x="701.5" y="508.9951">3D-Printer Technicians / Operators</text><!--MD5=[98eb1731c10734e7c53388eb00bdbca9]
cluster IT--><polygon fill="#FFFFFF" points="1313,379,1481,379,1488,401.2969,1509,401.2969,1509,494,1313,494,1313,379" style="stroke: #000000; stroke-width: 1.5;"/><line style="stroke: #000000; stroke-width: 1.5;" x1="1313" x2="1488" y1="401.2969" y2="401.2969"/><text fill="#000000" font-family="sans-serif" font-size="14" font-weight="bold" lengthAdjust="spacingAndGlyphs" textLength="162" x="1317" y="393.9951">University IT / Admin</text><!--MD5=[7c140ffff2dc964b63b24c5a401d4d6e]
cluster MEANS--><polygon fill="#FFFFFF" points="1064,886,1307,886,1314,908.2969,2503,908.2969,2503,991,1064,991,1064,886" style="stroke: #000000; stroke-width: 1.5;"/><line style="stroke: #000000; stroke-width: 1.5;" x1="1064" x2="1314" y1="908.2969" y2="908.2969"/><text fill="#000000" font-family="sans-serif" font-size="14" font-weight="bold" lengthAdjust="spacingAndGlyphs" textLength="237" x="1068" y="900.9951">System contributions (means)</text><!--MD5=[84c140a465f053c11dd2724088c6a8e3]
entity G_edit--><path d="M114.7509,798.6557 C118.3923,791.6962 124.2477,789.2007 130.1044,796.2229 C133.7673,788.8089 140.8213,788.5162 145.1838,795.4897 C148.265,789.0048 154.3743,788.9058 157.635,795.3164 C162.1987,788.5468 169.3196,790.1108 172.7451,796.6123 C176.9388,790.6079 183.6448,792.0459 186.6074,798.0352 C190.8497,791.1732 196.5575,790.9966 201.6916,796.9887 C208.2739,798.1181 209.9144,803.9955 206.3159,809.0335 C212.8448,811.4841 213.4354,816.9732 208.5806,821.493 C213.696,825.922 211.2236,830.9355 205.7159,832.6328 C210.5226,838.4621 208.8912,843.7661 201.2576,845.1724 C198.6175,849.058 194.743,848.7976 192.3176,844.9251 C190.0216,851.8815 186.2648,852.123 181.1738,847.6503 C178.3756,852.9077 173.7357,853.8643 170.0014,848.6488 C167.6901,854.6181 163.5301,857.3944 158.0432,851.9867 C153.4539,856.7983 148.8923,855.7105 147.4529,849.0731 C143.8573,853.5854 139.1382,851.9808 137.291,847.1677 C133.3394,851.4685 128.4072,852.1125 125.8867,845.6511 C122.5592,849.687 118.0741,849.7027 115.6432,844.6416 C109.3603,843.0206 107.5815,837.8887 112.6166,833.2584 C106.3235,831.1833 105.1231,824.7819 109.6339,820.2329 C105.6402,815.6048 106.2756,810.352 112.9822,808.8797 C109.1431,804.5507 109.7363,801.453 114.7509,798.6557 " fill="#F8F8F8" style="stroke: #000000; stroke-width: 1.5;"/><text fill="#000000" font-family="sans-serif" font-size="14" lengthAdjust="spacingAndGlyphs" textLength="73" x="121" y="816.4951">Edit voxels</text><text fill="#000000" font-family="sans-serif" font-size="14" lengthAdjust="spacingAndGlyphs" textLength="47" x="134" y="832.792">quickly</text><!--MD5=[a3f26b8d238f061517d4c93e1285574b]
entity G_avoid--><path d="M122.066,895.1962 C125.3853,890.0589 130.4537,889.0248 133.9921,894.9602 C137.6768,888.2547 143.7194,888.7928 146.7335,895.593 C148.6724,889.6109 153.5714,889.3762 157.6877,893.1477 C161.4194,887.7194 167.55,887.5799 170.991,893.4888 C175.4305,887.6502 179.3145,888.9584 182.6306,894.6253 C187.5879,889.7677 192.7044,890.3668 196.0381,896.5899 C202.4294,897.1648 204.8984,901.8464 200.9485,907.205 C208.1311,907.9567 210.3093,913.3205 205.3422,918.7114 C209.3992,923.7423 208.2231,929.2573 201.015,929.9513 C205.7999,935.8915 202.0972,940.7096 195.7493,941.6303 C191.5223,948.521 187.2193,948.5583 182.9491,941.6704 C180.1761,947.5773 175.7934,947.3677 171.6804,943.1638 C167.107,949.7961 162.1495,950.1864 158.0631,942.6943 C154.8362,948.5173 149.8442,948.9757 146.1372,943.1874 C141.3781,948.1423 137.7151,947.2151 134.0968,941.8556 C129.7227,947.6945 125.7389,947.8119 121.9267,941.3018 C115.1997,939.2744 115.6158,934.6226 119.3084,930.1491 C112.6529,928.8223 109.5182,924.2177 114.4145,918.1711 C109.8495,913.4193 111.8297,908.6156 117.4297,906.487 C113.0422,900.945 114.8383,895.9686 122.066,895.1962 " fill="#F8F8F8" style="stroke: #000000; stroke-width: 1.5;"/><text fill="#000000" font-family="sans-serif" font-size="14" lengthAdjust="spacingAndGlyphs" textLength="60" x="127.5" y="914.4951">Avoid full</text><text fill="#000000" font-family="sans-serif" font-size="14" lengthAdjust="spacingAndGlyphs" textLength="55" x="130" y="930.792">rebuilds</text><!--MD5=[eb38d03ca4a96dc3a7022ce32fc47727]
entity G_viz_need--><path d="M79.5834,700.2503 C82.3064,693.7337 86.6495,693.836 91.0221,698.5737 C94.4828,693.8908 98.2645,692.535 102.1366,698.1288 C105.7014,692.613 110.8427,693.7758 113.7791,698.8215 C116.6702,694.0524 120.1716,693.8027 123.9539,697.7854 C127.5873,692.1192 132.6411,690.8723 136.6044,697.4444 C139.4045,692.5474 144.4526,692.4124 146.8948,697.8024 C150.2922,692.8809 154.9388,693.8852 157.7542,698.4674 C161.1177,692.1781 165.6111,691.2345 170.1256,697.3163 C173.5411,693.0504 178.0669,692.2858 180.7988,698.0441 C185.5148,691.7531 189.8736,693.4431 193.4477,699.239 C196.2763,693.6663 201.3849,694.6969 203.9862,699.4706 C207.8934,694.2234 211.6883,694.0881 215.4298,699.6461 C218.8981,693.6905 223.5534,694.1897 226.7582,699.902 C229.9217,694.3719 235.1737,693.3331 238.8771,699.3345 C246.193,701.8947 246.4948,706.04 241.5118,711.3069 C247.1311,713.9775 249.3849,719.3204 243.5821,723.8728 C247.7241,728.9668 246.3924,733.1541 240.1135,734.9996 C243.6538,739.7858 243.9858,743.8295 237.1318,745.7264 C234.2548,750.7766 230.2989,751.1443 226.3975,746.9109 C223.303,752.7046 217.7201,752.2966 214.741,746.7919 C212.0559,752.6425 207.966,753.952 203.4784,748.605 C200.2978,752.7928 196.5954,753.7043 193.6234,748.3888 C189.3778,755.4428 185.5029,754.7364 180.9226,748.7138 C177.7544,755.2522 173.5614,754.1551 169.3549,749.8182 C166.4485,754.7007 162.0182,755.0652 159.3564,749.5823 C155.885,755.774 150.2215,755.5367 147.0686,749.2682 C143.5999,755.6594 138.5727,754.7417 135.3062,749.0709 C131.9814,753.4586 127.0001,753.7799 124.9283,747.8149 C121.5731,754.1728 115.8781,754.0981 112.7213,747.6261 C108.9991,753.3852 104.7713,751.8947 101.7723,746.8905 C98.2972,752.6073 94.6946,752.005 90.775,747.3623 C86.4945,752.6469 81.2028,752.0615 78.6462,745.5846 C72.6663,743.049 70.5623,739.1852 76.0494,734.0647 C69.6804,732.3091 67.7446,727.4109 71.8819,722.0201 C67.9678,716.9583 68.4857,713.076 74.4613,710.1662 C71.9382,704.8099 72.7391,700.7677 79.5834,700.2503 " fill="#F8F8F8" style="stroke: #000000; stroke-width: 1.5;"/><text fill="#000000" font-family="sans-serif" font-size="14" lengthAdjust="spacingAndGlyphs" textLength="101" x="107" y="718.4951">See material &amp;</text><text fill="#000000" font-family="sans-serif" font-size="14" lengthAdjust="spacingAndGlyphs" textLength="145" x="85" y="734.792">magnetization clearly</text><!--MD5=[3c6858970d16ad0e423f4cf7c8dc187c]
entity G_prepare--><path d="M446.091,623.7626 C449.4479,618.0926 453.0935,618.175 456.5591,623.6606 C460.5545,616.1769 464.9063,616.0772 469.9262,622.6889 C474.7628,616.2524 478.8192,616.1984 483.239,623.1047 C485.9657,617.5797 489.8855,616.5066 494.4285,621.0952 C500.057,614.949 504.0502,617.0721 507.3631,623.4809 C510.4784,619.0091 515.5204,617.7401 518.3774,623.7523 C522.0959,618.4515 526.9063,617.7373 530.8476,623.5012 C535.5443,617.2825 540.0483,617.6451 544.6541,623.6043 C550.4205,625.2734 551.4125,630.2131 547.7389,634.5441 C554.1444,636.5263 555.778,640.9325 551.8999,646.4952 C556.0432,652.5592 555.0207,657.0263 547.7936,659.5001 C552.0657,664.0888 551.8278,668.5134 545.1342,670.4352 C542.0881,677.0794 535.6465,677.5961 531.2899,671.9061 C529.1542,677.7866 526.1256,679.8529 520.4498,675.7499 C515.8046,683.2082 510.8618,683.4664 505.9187,676.0408 C504.4366,681.6899 499.6383,682.5316 495.6609,678.7571 C490.1265,684.1591 485.837,683.0517 482.2684,676.5462 C476.8583,682.9051 473.1777,680.8465 469.3573,674.8808 C465.3173,680.5612 459.8885,678.9264 457.1568,673.4501 C451.8074,677.6136 447.0191,676.8769 445.6227,669.4995 C438.2914,667.7436 437.8387,663.2323 441.6707,657.7285 C435.3871,655.6504 433.2207,651.7534 437.9501,646.1396 C433.8748,641.7254 435.1873,636.1696 441.6473,635.3732 C436.667,630.1332 438.653,624.2498 446.091,623.7626 " fill="#F8F8F8" style="stroke: #000000; stroke-width: 1.5;"/><text fill="#000000" font-family="sans-serif" font-size="14" lengthAdjust="spacingAndGlyphs" textLength="85" x="451" y="642.4951">Prepare files</text><text fill="#000000" font-family="sans-serif" font-size="14" lengthAdjust="spacingAndGlyphs" textLength="47" x="470" y="658.792">reliably</text><!--MD5=[f9c65357bc7c26b8bc0653a23915905d]
entity G_verify--><path d="M432.9789,721.6232 C437.2211,715.3328 441.5851,715.0497 446.261,721.1587 C449.5992,715.579 454.3401,716.1043 457.0774,721.7384 C460.1968,715.9645 466.0403,715.1732 469.8729,720.9483 C473.9915,714.721 477.8826,714.8358 481.6151,721.3054 C485.1512,713.4881 490.0841,712.7029 495.5221,719.4949 C499.8478,714.3647 503.2249,716.0269 506.0632,721.0405 C509.4593,715.9922 515.3669,715.4621 518.6278,721.1979 C522.3072,715.1202 528.6438,714.8264 531.5878,721.9215 C535.0228,716.3233 541.2174,716.1033 544.5814,722.0017 C548.0852,716.9236 551.2411,717.0814 555.0037,721.7242 C562.5495,723.5101 564.9309,727.0561 560.5176,734.1491 C566.7359,734.7007 569.1782,738.4265 565.6022,744.0221 C569.9086,749.4113 567.1585,754.7314 560.7841,755.7223 C565.5225,760.9283 563.6023,766.459 556.9613,768.1704 C552.4858,774.8869 547.0934,773.9329 542.7395,768.0334 C541.0183,774.0391 536.6676,774.8208 532.5852,770.3141 C528.5701,776.3267 523.7609,776.2829 519.7546,770.3047 C515.8161,776.5481 511.138,777.2266 506.5431,771.0002 C503.6078,776.8574 499.57,777.0474 495.5467,772.1083 C491.3255,778.3008 486.8822,777.8524 482.8727,771.8877 C478.7649,778.219 472.1068,777.1174 468.9504,770.8373 C465.1003,775.836 460.6295,774.7867 458.5778,769.0928 C454.3247,775.3835 450.4402,774.3704 446.1097,769.1767 C442.5132,774.6391 436.7006,775.2597 433.1061,769.1745 C425.1986,767.068 424.1296,761.6136 428.6445,755.4644 C422.5306,753.8288 421.5535,748.2956 425.6803,744.0099 C422.5871,738.8375 424.4366,734.1573 430.7334,733.4991 C426.3383,728.8331 427.234,724.372 432.9789,721.6232 " fill="#F8F8F8" style="stroke: #000000; stroke-width: 1.5;"/><text fill="#000000" font-family="sans-serif" font-size="14" lengthAdjust="spacingAndGlyphs" textLength="109" x="439" y="740.4951">Verify directions</text><text fill="#000000" font-family="sans-serif" font-size="14" lengthAdjust="spacingAndGlyphs" textLength="80" x="453.5" y="756.792">before print</text><!--MD5=[6514a1fd780df2424e0d34ad3c91a8cf]
entity G_large--><path d="M791.137,167.0719 C794.8532,159.5779 800.4243,160.6807 805.0512,166.0899 C808.663,159.4126 815.0213,159.3134 818.687,166.0352 C822.4245,160.3612 828.4008,159.7793 831.7911,166.4051 C835.1031,160.3769 838.8926,158.9893 843.9101,164.6345 C847.6545,159.1071 852.9099,158.7083 856.375,164.9308 C860.0067,159.2024 865.6042,158.6066 869.3036,164.8577 C874.2215,158.5542 880.8942,158.5623 883.9442,166.7454 C887.2988,159.6684 892.9455,160.5655 897.0106,166.0035 C904.5867,168.3616 905.9005,172.4795 901.4156,178.9433 C907.8896,181.1764 909.3104,186.0458 903.8948,190.7711 C908.7411,195.5849 905.6282,200.2518 900.2491,201.6338 C904.7805,207.632 903.6195,211.5533 896.0731,213.1851 C892.9521,220.226 888.6762,219.7538 883.5761,215.3453 C880.7413,222.0657 876.1345,222.4781 871.2841,217.4551 C868.2781,225.9211 861.2121,226.1224 856.2471,219.3937 C853.0068,226.2731 847.4496,226.1884 843.1189,220.5358 C838.615,227.036 833.7982,224.6217 830.5652,219.1979 C826.6735,224.4193 820.8885,224.0296 818.9336,217.3111 C813.7973,223.208 807.231,222.1882 803.8234,215.2725 C799.3508,220.3901 794.7815,219.3768 791.5718,213.8226 C785.7988,210.9511 783.987,204.9022 789.8932,200.5533 C784.5827,198.5175 783.5104,192.8642 787.863,189.1134 C784.1389,185.3345 785.0892,180.9763 790.1041,179.1663 C785.2757,175.0723 784.2132,170.1623 791.137,167.0719 " fill="#F8F8F8" style="stroke: #000000; stroke-width: 1.5;"/><text fill="#000000" font-family="sans-serif" font-size="14" lengthAdjust="spacingAndGlyphs" textLength="91" x="797.5" y="185.4951">Handle larger</text><text fill="#000000" font-family="sans-serif" font-size="14" lengthAdjust="spacingAndGlyphs" textLength="85" x="800.5" y="201.792">CAD models</text><!--MD5=[c2b51d6d6ab6df52f2cf4d4345fd69fb]
entity G_through--><path d="M775.2379,69.2941 C777.5761,62.6095 782.8303,63.3269 786.8038,67.562 C789.8186,61.565 795.1897,62.2649 798.7109,67.0003 C801.9158,62.144 806.4289,63.361 808.955,67.7522 C812.1793,61.6775 817.9351,62.5976 820.5709,68.3311 C823.6798,62.3352 828.3066,61.8812 831.9457,67.8259 C834.6643,61.9737 840.8729,60.6559 844.9898,66.2295 C848.091,61.6837 853.1201,62.1744 855.6816,66.8548 C859.2289,61.5053 864.2443,61.099 867.1059,67.5202 C870.7313,61.8314 876.3726,63.1142 878.9884,68.5943 C881.7181,62.8891 887.2523,62.3327 890.2796,68.3066 C893.6256,62.8201 897.5727,64.0452 900.7789,68.4549 C904.1852,63.0743 908.3747,62.4095 912.3935,67.794 C918.6793,68.7075 921.8382,73.4938 917.7916,79.2682 C924.8321,80.8684 925.9398,86.3625 920.4873,90.8663 C926.5227,96.8478 923.2752,101.4874 916.8462,104.0182 C920.6745,107.9835 920.6121,113.788 913.9421,114.9693 C911.2918,120.5034 905.6405,121.9854 901.6065,116.5211 C898.7715,122.2723 893.7904,122.6893 889.5448,118.1793 C887.4154,123.3208 883.1236,125.2873 879.0056,120.2354 C875.2365,126.8478 870.6762,125.7957 866.3335,120.8652 C864.424,127.0652 859.4759,127.0902 855.4047,123.2088 C852.1446,128.2466 848.5471,129.5555 844.2669,124.3141 C840.5796,129.1566 835.2768,128.9005 832.4322,123.3541 C828.1752,129.5961 823.2062,127.6499 820.1908,122.0685 C815.6451,125.3426 811.8018,124.2428 809.937,118.8842 C806.7131,124.927 801.4455,123.7053 798.189,118.9196 C793.0575,123.9967 789.2644,122.4764 786.6505,116.3311 C782.9604,121.5682 778.6214,119.929 776.0269,115.1671 C769.7102,112.0378 768.9657,108.4491 774.5778,103.7992 C768.3887,100.6837 768.9857,96.3347 773.4366,92.1747 C768.434,88.7304 768.0078,83.1177 773.6401,79.849 C769.3089,75.4979 769.6181,72.1389 775.2379,69.2941 " fill="#F8F8F8" style="stroke: #000000; stroke-width: 1.5;"/><text fill="#000000" font-family="sans-serif" font-size="14" lengthAdjust="spacingAndGlyphs" textLength="124" x="781" y="87.4951">Increase research</text><text fill="#000000" font-family="sans-serif" font-size="14" lengthAdjust="spacingAndGlyphs" textLength="78" x="804" y="103.792">throughput</text><!--MD5=[a438927e546032c0fa225a96f7a1615f]
entity G_ready--><path d="M763.3422,538.9492 C765.7315,533.1739 771.3041,533.7864 774.4253,538.149 C777.7964,532.5106 783.579,533.7146 786.1653,538.993 C789.7979,531.7372 793.8295,532.1545 798.9164,537.5241 C802.4676,532.3593 806.3964,533.8204 809.0467,538.4554 C812.7022,531.9709 816.7784,533.354 820.8617,538.0013 C823.5209,532.8462 828.4436,532.3007 832.3303,536.4956 C836.7331,531.4598 840.3605,531.7871 844.1139,537.2262 C847.1889,531.7085 851.8196,530.867 855.6358,536.4573 C860.342,531.5468 864.4359,531.3784 867.1921,538.3533 C870.0855,533.3682 873.9793,532.553 877.9798,537.1005 C883.2716,531.7876 887.2298,532.4257 890.9929,538.8023 C894.7924,533.3501 898.769,533.6554 902.5217,538.8528 C906.1497,534.0237 909.1443,534.55 912.4791,539.162 C916.4661,533.2517 920.1648,533.2872 924.7471,538.5058 C929.8828,541.6677 930.215,546.3275 925.648,550.2346 C932.3502,553.6377 932.8794,557.9561 927.0052,562.7257 C932.7358,566.7757 932.2416,571.4591 925.9821,574.4642 C931.0542,578.2432 929.8859,582.8907 924.2598,584.905 C920.9786,589.6332 916.3192,589.3462 913.3457,584.5523 C910.3862,589.7649 905.8422,590.9438 901.5803,586.0719 C898.8603,591.5154 893.7834,592.2138 890.4349,586.7121 C885.9994,592.7655 881.16,592.5689 877.5273,585.8978 C874.0649,590.4245 870.5616,591.3893 866.7387,586.3023 C864.4598,591.1647 860.6086,592.6646 856.4155,588.4887 C851.8681,593.9396 848.2687,593.7382 845.1812,587.1289 C841.9,594.6284 836.0207,593.3522 831.7886,588.1299 C827.511,593.6038 823.8607,592.3801 820.8947,586.8335 C816.9759,592.2906 812.0824,593.2785 808.5871,586.4105 C804.7979,591.2935 800.7552,590.7757 797.2827,586.0383 C793.6897,591.755 790.0519,592.1362 785.8648,586.6434 C781.5539,592.1877 777.4485,591.8919 774.4942,585.3655 C771.1555,590.7914 766.0825,591.4312 762.7256,585.3842 C755.9298,584.0499 755.3774,579.1902 759.4852,574.5844 C752.8682,572.4673 750.9031,567.1847 756.4911,562.1329 C752.7928,557.0288 754.5318,552.7661 760.5632,551.3294 C755.9556,545.7906 756.2481,541.8614 763.3422,538.9492 " fill="#F8F8F8" style="stroke: #000000; stroke-width: 1.5;"/><text fill="#000000" font-family="sans-serif" font-size="14" lengthAdjust="spacingAndGlyphs" textLength="147" x="769.5" y="557.4951">Receive printer-ready</text><text fill="#000000" font-family="sans-serif" font-size="14" lengthAdjust="spacingAndGlyphs" textLength="52" x="817" y="573.792">exports</text><!--MD5=[73c1c7acf984e1535e4bebfba4a5136e]
entity G_it--><path d="M1338.3244,423.5795 C1341.4093,418.7402 1346.0028,417.7591 1349.4556,423.1804 C1354.0932,417.2599 1357.9397,417.1367 1361.8554,423.8869 C1365.3294,418.3935 1369.7929,417.5413 1374.0256,423.0475 C1377.8347,416.3023 1381.7228,416.6502 1386.7028,421.7996 C1391.4727,416.5615 1395.6277,415.0884 1399.8618,422.3631 C1402.8115,416.7646 1407.9063,415.2205 1412.2253,420.8562 C1416.3867,414.1823 1421.6994,414.5076 1425.1338,421.5408 C1428.9487,416.6708 1434.1917,416.7882 1437.017,422.6378 C1440.1006,416.7213 1445.6245,416.5948 1448.9776,422.362 C1452.1921,416.6654 1457.6648,417.0848 1460.9026,422.3366 C1465.0099,416.6664 1471.5537,416.0635 1474.6696,423.387 C1478.8214,418.259 1483.1564,417.2112 1487.1617,423.5466 C1493.2223,426.3505 1493.7828,430.6514 1489.0873,435.2284 C1496.5179,435.9991 1497.4854,440.8793 1493.7171,446.3232 C1498.0111,452.3023 1496.6576,458.3275 1488.4863,459.2704 C1492.394,464.0756 1490.7173,468.6269 1485.119,470.6091 C1481.517,475.0874 1477.6405,475.707 1474.769,469.8758 C1469.9006,476.4125 1465.3893,476.8711 1460.6635,469.7287 C1457.1526,475.8789 1453.392,475.6431 1449.2958,470.308 C1446.3364,476.5458 1441.3611,476.5068 1437.4612,471.2788 C1433.4311,477.2825 1429.6125,477.6715 1425.2288,471.6383 C1420.094,478.0685 1415.5311,478.243 1411.5628,470.5125 C1408.0289,475.6707 1403.7214,476.2937 1400.2525,470.4456 C1396.9065,475.7623 1391.3973,476.5276 1388.0727,470.4228 C1383.0937,476.6024 1378.9498,475.7006 1374.3001,470.0398 C1371.2152,475.4811 1367.726,475.5098 1363.6225,471.1494 C1358.8829,477.4505 1354.477,475.1824 1351.1165,469.6873 C1347.159,476.4801 1341.2436,475.82 1337.3902,469.5776 C1330.7419,467.1583 1331.2811,461.52 1336.0654,457.8132 C1331.0702,454.5309 1330.067,451.1567 1335.5849,447.3897 C1330.1299,443.0899 1331.8516,438.3188 1337.2349,435.5264 C1332.7271,432.097 1331.6849,425.9922 1338.3244,423.5795 " fill="#F8F8F8" style="stroke: #000000; stroke-width: 1.5;"/><text fill="#000000" font-family="sans-serif" font-size="14" lengthAdjust="spacingAndGlyphs" textLength="134" x="1344" y="442.4951">Install/maintain with</text><text fill="#000000" font-family="sans-serif" font-size="14" lengthAdjust="spacingAndGlyphs" textLength="121" x="1350.5" y="458.792">minimal overhead</text><!--MD5=[544f707d0f16da346f2673ca89ebd554]
entity EB--><rect fill="#FFFFFF" height="36.2969" rx="4" ry="4" style="stroke: #000000; stroke-width: 1.5;" width="146" x="84.5" y="985"/><text fill="#000000" font-family="sans-serif" font-size="14" lengthAdjust="spacingAndGlyphs" textLength="126" x="94.5" y="1007.9951">Expected Benefits</text><!--MD5=[668caa26a607b28b087d5313fc5230c5]
entity M_import--><rect fill="#F8F8F8" height="36.2969" rx="4" ry="4" style="stroke: #000000; stroke-width: 1.5;" width="153" x="1080" y="939"/><text fill="#000000" font-family="sans-serif" font-size="14" lengthAdjust="spacingAndGlyphs" textLength="133" x="1090" y="961.9951">Import CAD models</text><!--MD5=[3058135c4dbf5c3588b41a6cf4f669d5]
entity M_vox--><rect fill="#F8F8F8" height="52.5938" rx="4" ry="4" style="stroke: #000000; stroke-width: 1.5;" width="132" x="1345" y="921.5"/><text fill="#000000" font-family="sans-serif" font-size="14" lengthAdjust="spacingAndGlyphs" textLength="112" x="1355" y="944.4951">Auto-voxelize by</text><text fill="#000000" font-family="sans-serif" font-size="14" lengthAdjust="spacingAndGlyphs" textLength="105" x="1358.5" y="960.792">printer settings</text><!--MD5=[7e6a68ceabb5536df1eeae4ae0a74842]
entity M_layer--><rect fill="#F8F8F8" height="52.5938" rx="4" ry="4" style="stroke: #000000; stroke-width: 1.5;" width="182" x="1553" y="921.5"/><text fill="#000000" font-family="sans-serif" font-size="14" lengthAdjust="spacingAndGlyphs" textLength="162" x="1563" y="944.4951">Per-layer magnetization</text><text fill="#000000" font-family="sans-serif" font-size="14" lengthAdjust="spacingAndGlyphs" textLength="94" x="1597" y="960.792">vector editing</text><!--MD5=[f945248dce901a9d145238703515e163]
entity M_batch--><rect fill="#F8F8F8" height="52.5938" rx="4" ry="4" style="stroke: #000000; stroke-width: 1.5;" width="182" x="1815.5" y="921.5"/><text fill="#000000" font-family="sans-serif" font-size="14" lengthAdjust="spacingAndGlyphs" textLength="162" x="1825.5" y="944.4951">Batch edit voxel groups</text><text fill="#000000" font-family="sans-serif" font-size="14" lengthAdjust="spacingAndGlyphs" textLength="84" x="1864.5" y="960.792">&amp; directions</text><!--MD5=[ec1a1df68635fcce06a1d22b472c184a]
entity M_viz--><rect fill="#F8F8F8" height="52.5938" rx="4" ry="4" style="stroke: #000000; stroke-width: 1.5;" width="160" x="2078" y="921.5"/><text fill="#000000" font-family="sans-serif" font-size="14" lengthAdjust="spacingAndGlyphs" textLength="134" x="2091" y="944.4951">Visualize material &amp;</text><text fill="#000000" font-family="sans-serif" font-size="14" lengthAdjust="spacingAndGlyphs" textLength="140" x="2088" y="960.792">magnetization maps</text><!--MD5=[f1dce7ac9e8a42f8a05523ea641fa1c1]
entity M_export--><rect fill="#F8F8F8" height="52.5938" rx="4" ry="4" style="stroke: #000000; stroke-width: 1.5;" width="189" x="2298" y="921.5"/><text fill="#000000" font-family="sans-serif" font-size="14" lengthAdjust="spacingAndGlyphs" textLength="167" x="2309" y="944.4951">Export printer-ready files</text><text fill="#000000" font-family="sans-serif" font-size="14" lengthAdjust="spacingAndGlyphs" textLength="169" x="2308" y="960.792">(with property metadata)</text><!--MD5=[6027ce695e75e53e6558249748e44c34]
entity B_iter--><path d="M436.1397,904.1551 C439.3536,896.972 444.6947,896.8737 448.8004,903.3271 C451.8179,897.9483 455.8429,898.3744 458.9049,903.2834 C461.722,897.4429 467.4408,897.065 470.8602,902.6534 C474.1781,897.3044 480.601,896.6599 483.9501,902.6174 C486.6064,897.3441 491.7285,896.8506 495.1695,901.7521 C498.3479,895.6543 504.3362,896.3212 507.2203,902.0519 C510.5083,898.0377 514.1315,896.9271 517.1701,902.3159 C521.8192,896.9727 526.1911,896.0454 530.532,902.6603 C534.2934,898.0757 539.6376,898.3022 541.6446,904.4731 C545.3792,900.0928 549.0158,899.9348 552.587,904.6693 C560.9441,907.4753 560.5072,913.6967 555.5356,919.2062 C563.2128,924.8913 562.0711,931.275 553.8952,935.3493 C549.1777,941.2148 545.196,940.8228 541.0597,934.7256 C538.0729,940.4503 532.7959,942.0731 528.6054,935.9958 C525.2539,940.7674 520.1425,941.3738 517.0925,935.6646 C512.787,941.3698 508.7302,940.9387 505.4965,934.63 C502.8937,939.0584 497.7701,940.3897 494.875,934.9445 C490.9825,941.2189 486.0032,939.9048 482.6761,934.3609 C480.1139,941.1852 474.8799,941.1381 470.5517,936.1779 C466.9572,940.9919 461.7126,940.3379 458.9536,935.2038 C456.1823,940.3395 451.13,939.9258 448.103,935.4938 C444.4348,940.9208 438.1121,941.1105 435.4491,934.4423 C428.4656,930.2362 427.2475,924.2104 434.663,919.2588 C426.7797,914.29 428.0984,907.5668 436.1397,904.1551 " fill="#F8F8F8" style="stroke: #000000; stroke-width: 1.5;"/><text fill="#000000" font-family="sans-serif" font-size="14" lengthAdjust="spacingAndGlyphs" textLength="103" x="442" y="922.9951">Faster iteration</text><!--MD5=[55614745b886f8109f2eb746cd1d4ce2]
entity B_flex--><path d="M751.2409,729.4055 C756.1188,723.163 761.1672,723.4979 765.2994,730.2145 C768.4293,724.9775 773.5209,724.0564 776.7962,730.066 C780.041,722.5237 786.3,722.662 791.312,728.0879 C795.9696,721.3797 800.7324,720.9238 805.011,728.4525 C808.4533,721.3626 815.0723,721.3699 818.3255,728.6281 C821.5113,722.4497 826.5817,722.6248 830.9374,727.2641 C834.6387,720.8184 841.2192,721.6113 844.5549,727.6626 C848.429,720.6313 853.1231,720.9575 857.7888,726.8521 C861.0464,721.5981 866.3553,721.295 869.8233,726.6127 C875.5242,719.4539 881.9244,721.3963 885.0634,729.2189 C887.6671,723.4509 893.0297,722.6562 896.6273,728.2032 C900.3051,723.0018 906.1222,723.3492 909.4477,728.6341 C914.4098,723.0463 921.4025,723.1781 924.6995,730.5879 C928.2914,725.022 933.1727,723.2655 937.3449,729.9908 C944.7809,733.5231 946.3614,740.6602 939.6965,746.2339 C945.9673,752.8067 945.1881,758.7161 936.159,761.8153 C932.4641,768.0247 928.8371,769.0294 923.9082,763.0562 C921.0488,768.8831 915.2483,770.2948 911.5477,763.9075 C907.8639,770.14 902.2823,770.6506 898.5904,763.9155 C894.5138,771.1483 890.3334,769.8907 885.3635,764.8806 C882.6571,772.9936 875.5342,774.7632 869.8545,767.9754 C866.208,773.1548 860.9175,773.8018 857.1648,768.0993 C853.4917,774.5539 848.9246,775.3477 843.2764,770.5335 C837.8645,775.51 833.2581,775.5426 829.7588,768.4001 C826.518,774.6864 820.5321,773.7662 817.6576,768.0314 C813.0382,774.017 807.6154,772.741 805.515,765.6858 C801.4391,772.2526 796.0605,772.7905 792.2112,765.4688 C786.5735,770.257 781.4508,769.1651 778.4055,762.3771 C773.969,768.3539 768.3997,769.9174 763.8183,762.5353 C758.8709,767.6426 754.0911,767.2023 751.6612,760.0407 C743.3928,757.3662 740.9397,751.703 746.9192,744.6411 C739.8391,738.1293 742.4812,731.4244 751.2409,729.4055 " fill="#F8F8F8" style="stroke: #000000; stroke-width: 1.5;"/><text fill="#000000" font-family="sans-serif" font-size="14" lengthAdjust="spacingAndGlyphs" textLength="172" x="757" y="748.9951">Flexible re-magnetization</text><!--MD5=[0f244d6a275fcbebc32cd3297bd94bdf]
entity B_conv--><path d="M1054.0047,584.802 C1057.0045,576.3458 1064.3267,575.7459 1068.7871,583.4674 C1072.9508,575.2526 1079.9039,576.9026 1084.3155,583.2023 C1087.9441,575.3799 1093.852,575.2363 1098.8153,581.8629 C1102.8378,575.5859 1109.99,575.9028 1113.5725,582.3723 C1117.31,573.9465 1124.1348,573.1017 1129.1883,581.1229 C1132.2244,574.85 1139.1971,574.1191 1143.4447,579.6611 C1148.1865,572.779 1154.1331,572.4791 1159.1176,579.3851 C1163.6473,572.0353 1170.2893,573.6054 1173.3852,580.7923 C1177.0081,574.0055 1182.4454,573.5486 1186.372,580.5054 C1191.7953,573.8455 1199.7651,574.0603 1203.861,582.0861 C1208.6099,577.1579 1212.7433,576.1867 1216.7811,582.8769 C1221.3344,575.5258 1228.0484,575.6045 1233.3003,582.0398 C1237.5278,576.7943 1242.0789,575.5539 1246.1991,582.1566 C1251.7448,573.3041 1258.0067,573.9959 1263.204,582.4979 C1270.5668,584.6638 1272.7011,591.8888 1267.4732,597.6113 C1272.6083,604.6976 1271.1614,611.2095 1261.6899,612.6956 C1258.0439,619.6567 1251.5937,619.2207 1247.5225,613.1582 C1243.6479,621.3098 1239.1076,622.2148 1232.9595,615.3653 C1229.0938,622.6272 1223.5686,623.392 1218.8865,616.1578 C1213.6755,624.7964 1207.3768,623.3775 1202.1859,616.1367 C1199.3204,623.6857 1192.8157,626.1402 1187.2716,618.8241 C1182.0237,625.3035 1177.6803,625.6144 1173.0925,618.1527 C1169.5431,625.0332 1163.4183,627.1332 1157.8962,620.346 C1153.2033,626.8773 1148.003,626.297 1144.2222,619.4161 C1139.3577,626.9689 1132.7704,626.7402 1128.4352,618.8741 C1123.5146,626.257 1116.4903,624.5223 1113.6776,616.8128 C1109.5095,623.4887 1101.858,623.3279 1097.7375,616.7554 C1094.1746,623.781 1087.7987,622.4953 1084.187,616.8074 C1077.5411,624.757 1072.2592,622.3312 1067.781,614.5471 C1063.2565,621.7322 1057.2184,621.1944 1052.7063,614.5335 C1041.5969,612.6103 1039.3761,606.4312 1046.4799,597.7508 C1042.1679,589.2552 1044.9949,585.556 1054.0047,584.802 " fill="#F8F8F8" style="stroke: #000000; stroke-width: 1.5;"/><text fill="#000000" font-family="sans-serif" font-size="14" lengthAdjust="spacingAndGlyphs" textLength="195" x="1059" y="601.9951">CAD → voxel grid conversion</text><!--MD5=[582a6635526f75582e1e5fb5c2b259cc]
entity B_ux--><path d="M1579.9292,472.0416 C1583.0135,466.8603 1589.0155,467.0521 1592.0501,472.1005 C1596.3474,465.7903 1602.4461,463.7254 1607.0667,471.7621 C1610.6243,466.319 1614.5848,464.1624 1619.4423,470.3827 C1622.7746,463.3032 1628.9514,463.2839 1632.8477,469.8277 C1635.5819,464.1008 1641.1531,463.3829 1645.1095,468.4377 C1650.6816,462.6985 1655.1822,462.5929 1658.9503,470.2952 C1661.9674,464.7549 1667.5707,463.9771 1670.5953,470.2879 C1675.275,463.2291 1679.9296,463.8536 1684.8411,470.0385 C1688.7763,465.2497 1693.5454,464.3354 1696.8292,470.7363 C1701.6502,465.0456 1706.3752,465.5367 1710.5369,471.511 C1719.0534,475.0497 1720.5009,482.4415 1712.2626,487.7597 C1717.5525,493.4058 1718.0544,498.6341 1709.6621,501.734 C1705.2645,508.1586 1701.0997,507.4558 1696.2687,502.2323 C1694.0964,508.7969 1688.0223,509.5871 1683.6512,504.643 C1679.8194,511.1156 1675.2981,511.3782 1670.876,505.241 C1667.3243,511.7887 1661.0316,511.0912 1657.4424,505.2818 C1655.178,511.8561 1649.7646,511.7002 1646.0783,506.6748 C1641.6401,512.3712 1635.4169,513.0636 1631.531,506.043 C1627.4806,511.1776 1621.3059,512.3846 1618.3333,504.9145 C1614.2066,509.67 1608.1912,509.6907 1605.8107,503.0036 C1601.3936,508.7644 1597.6239,508.8021 1593.9704,502.2683 C1588.7931,509.318 1584.0311,508.6152 1579.2444,501.8519 C1572.3921,499.1557 1571.4002,492.3972 1576.9148,487.6696 C1570.8586,481.333 1571.8117,475.6443 1579.9292,472.0416 " fill="#F8F8F8" style="stroke: #000000; stroke-width: 1.5;"/><text fill="#000000" font-family="sans-serif" font-size="14" lengthAdjust="spacingAndGlyphs" textLength="116" x="1586" y="490.9951">User-friendly tool</text><!--MD5=[5a5c4bc907631f46a19103b7cd8d30a6]
entity B_prod--><path d="M1803.1446,254.3815 C1807.4656,246.9144 1814.4391,247.0171 1818.4139,254.7298 C1823.3568,248.6662 1829.0621,248.1859 1833.1843,255.6273 C1837.9797,246.9365 1843.013,247.8869 1849.1179,254.2404 C1852.1893,246.537 1858.8553,244.7204 1863.9613,252.259 C1869.1883,246.5083 1874.15,247.3799 1877.8827,253.9478 C1882.0399,245.2208 1887.4803,245.5733 1893.4775,252.0619 C1898.2982,245.7107 1902.8484,243.8404 1908.0131,251.7103 C1913.0919,244.0917 1919.177,245.7023 1923.4011,252.6155 C1928.8824,245.9383 1933.5925,246.6892 1938.1124,253.6523 C1941.7493,245.9627 1947.8583,246.3935 1952.3948,252.7366 C1957.0671,246.7225 1964.6278,247.2152 1967.8213,254.4574 C1970.9723,246.7789 1977.6727,248.3272 1981.4693,253.7867 C1985.7898,246.037 1991.8831,246.1447 1996.1505,253.8373 C2000.1726,246.5137 2006.6433,247.0818 2010.2041,254.2836 C2019.0383,254.7169 2023.543,262.0048 2018.0026,269.7065 C2024.3223,278.7751 2020.2705,284.3561 2010.8839,286.9351 C2006.6069,294.8255 1999.5446,293.504 1996.0783,286.1478 C1992.3361,293.2711 1987.2532,294.3158 1981.4388,288.4906 C1976.9949,295.5977 1972.4692,296.4007 1967.5521,288.9416 C1964.7943,297.991 1957.6913,300.3589 1950.9651,292.9382 C1946.7885,298.9492 1941.9679,297.6509 1938.6541,292.0253 C1934.7832,300.7212 1929.6867,301.3373 1922.7129,295.4072 C1918.8103,301.6979 1911.5842,301.2445 1907.8506,295.2036 C1902.9783,302.9664 1897.0775,302.3416 1892.5589,294.849 C1887.4937,301.6101 1880.515,299.9926 1878.3091,292.0735 C1874.1744,298.8955 1867.5409,297.8953 1864.8982,290.651 C1859.4178,299.5723 1854.111,299.179 1847.8328,291.4697 C1842.2601,298.0937 1837.8516,298.1066 1833.8835,289.9547 C1828.0596,296.1486 1822.4354,295.8399 1819.0978,287.4364 C1813.6415,293.396 1808.065,293.1144 1805.1945,284.9 C1793.9727,285.6377 1791.464,279.406 1795.0897,270.0444 C1789.6574,261.294 1793.8408,255.5536 1803.1446,254.3815 " fill="#F8F8F8" style="stroke: #000000; stroke-width: 1.5;"/><text fill="#000000" font-family="sans-serif" font-size="14" lengthAdjust="spacingAndGlyphs" textLength="193" x="1810" y="273.9951">Higher research productivity</text><!--MD5=[37614d107c8750fac14370e35441965a]
link B_iter to B_flex--><!--MD5=[653bfc61492aedd15d60aeea2f2d8bbf]
link B_flex to B_conv--><!--MD5=[b5bf2e4944e0ac605b0d0db663719f8a]
link B_conv to B_ux--><!--MD5=[6d375361db3b7238036a2264c78e83a6]
link B_ux to B_prod--><!--MD5=[0b00bcf7afb39b246984a7c74cea6320]
link G_edit to B_iter--><path d="M209.23,834.88 C265.96,851.53 358.25,878.61 421.99,897.31 " fill="none" id="G_edit-&gt;B_iter" style="stroke: #383838; stroke-width: 1.0;"/><polygon fill="#383838" points="426.91,898.75,419.39,892.39,422.11,897.35,417.15,900.07,426.91,898.75" style="stroke: #383838; stroke-width: 1.0;"/><!--MD5=[8f9a2d5c8c34e432d58bbca4680419cc]
link G_avoid to B_iter--><path d="M202.51,918 C258.36,918 355.39,918 421.7,918 " fill="none" id="G_avoid-&gt;B_iter" style="stroke: #383838; stroke-width: 1.0;"/><polygon fill="#383838" points="426.82,918,417.82,914,421.82,918,417.82,922,426.82,918" style="stroke: #383838; stroke-width: 1.0;"/><!--MD5=[e6e92894bdc111b69c1f19107f62f19f]
link G_viz_need to B_ux--><path d="M182.57,690.5 C263.47,588.52 537.66,274 842,274 C842,274 842,274 1157.5,274 C1341.01,274 1533.39,402.78 1609.33,459.6 " fill="none" id="G_viz_need-&gt;B_ux" style="stroke: #383838; stroke-width: 1.0;"/><polygon fill="#383838" points="1613.73,462.91,1608.93,454.31,1609.73,459.91,1604.13,460.71,1613.73,462.91" style="stroke: #383838; stroke-width: 1.0;"/><!--MD5=[789884577a573010ad644276001a08ac]
link G_prepare to B_conv--><path d="M551.34,641.84 C644.4,635.03 835.06,621.04 996.5,609 C1010.15,607.98 1024.45,606.91 1038.65,605.84 " fill="none" id="G_prepare-&gt;B_conv" style="stroke: #383838; stroke-width: 1.0;"/><polygon fill="#383838" points="1043.87,605.45,1034.5977,602.1297,1038.8838,605.8215,1035.192,610.1076,1043.87,605.45" style="stroke: #383838; stroke-width: 1.0;"/><!--MD5=[97447b03b80c36e6ac879dc78aef76dc]
link G_verify to B_flex--><path d="M563.15,744 C612.69,744 680.48,744 736.82,744 " fill="none" id="G_verify-&gt;B_flex" style="stroke: #383838; stroke-width: 1.0;"/><polygon fill="#383838" points="741.89,744,732.89,740,736.89,744,732.89,748,741.89,744" style="stroke: #383838; stroke-width: 1.0;"/><!--MD5=[b93f4e268c4da95672dde2e4e6d98ebf]
link G_large to B_conv--><path d="M868.18,220.68 C927.33,298.14 1078.52,496.17 1134.36,569.31 " fill="none" id="G_large-&gt;B_conv" style="stroke: #383838; stroke-width: 1.0;"/><polygon fill="#383838" points="1137.58,573.53,1135.298,563.9492,1134.5459,569.5558,1128.9393,568.8037,1137.58,573.53" style="stroke: #383838; stroke-width: 1.0;"/><!--MD5=[918b1cb6ab7f7602330b06c15579dbde]
link G_through to B_prod--><path d="M920.34,103.8 C1103.93,134.59 1571.1,212.93 1789.57,249.56 " fill="none" id="G_through-&gt;B_prod" style="stroke: #383838; stroke-width: 1.0;"/><polygon fill="#383838" points="1794.68,250.42,1786.4651,244.9871,1789.7488,249.5934,1785.1426,252.877,1794.68,250.42" style="stroke: #383838; stroke-width: 1.0;"/><!--MD5=[f080fcdd37a69ba39cb33bd1086695de]
link G_ready to B_conv--><path d="M931.6,571.12 C964.79,574.96 1003.12,579.39 1038.58,583.49 " fill="none" id="G_ready-&gt;B_conv" style="stroke: #383838; stroke-width: 1.0;"/><polygon fill="#383838" points="1043.79,584.09,1035.3073,579.0857,1038.8229,583.5174,1034.3911,587.033,1043.79,584.09" style="stroke: #383838; stroke-width: 1.0;"/><!--MD5=[6fba224f04b38c77a9cf6daeee8cfb03]
link G_it to B_ux--><path d="M1493.12,460.05 C1516.78,464.14 1542.57,468.61 1565.98,472.66 " fill="none" id="G_it-&gt;B_ux" style="stroke: #383838; stroke-width: 1.0;"/><polygon fill="#383838" points="1570.93,473.52,1562.7331,468.0601,1566.0015,472.6772,1561.3845,475.9457,1570.93,473.52" style="stroke: #383838; stroke-width: 1.0;"/><!--MD5=[9fd29668b47da51d127bbfc7814c4677]
link B_iter to M_import--><path d="M560.3,921.88 C682.16,929.07 942.61,944.44 1074.86,952.24 " fill="none" id="B_iter-&gt;M_import" style="stroke: #383838; stroke-width: 1.0;"/><polygon fill="#383838" points="1079.9,952.54,1071.1565,948.0067,1074.909,952.2397,1070.676,955.9922,1079.9,952.54" style="stroke: #383838; stroke-width: 1.0;"/><!--MD5=[27f6a608445e8a5e91b41a6404bd0286]
link B_iter to M_vox--><path d="M560.38,915.47 C598.16,914.14 646.49,912.66 689.5,912 C947.06,908.04 1012.95,893.85 1269,922 C1292.12,924.54 1317.14,928.69 1339.6,932.94 " fill="none" id="B_iter-&gt;M_vox" style="stroke: #383838; stroke-width: 1.0;"/><polygon fill="#383838" points="1344.65,933.9,1336.5649,928.2758,1339.7396,932.9579,1335.0575,936.1325,1344.65,933.9" style="stroke: #383838; stroke-width: 1.0;"/><!--MD5=[d317a1b27e81063b7d856a8d48a36afa]
link B_iter to M_batch--><path d="M535.06,941.17 C573.64,962.27 633.88,992.83 689.5,1011 C889.85,1076.47 944.73,1099 1155.5,1099 C1155.5,1099 1155.5,1099 1412,1099 C1577.04,1099 1760.08,1020.82 1849.77,976.97 " fill="none" id="B_iter-&gt;M_batch" style="stroke: #383838; stroke-width: 1.0;"/><polygon fill="#383838" points="1854.49,974.65,1844.6491,975.0469,1850.0065,976.8632,1848.1903,982.2205,1854.49,974.65" style="stroke: #383838; stroke-width: 1.0;"/><!--MD5=[fee2740a96ee826636c2eed22afdfe90]
link B_iter to M_layer--><path d="M560.17,931.83 C597.88,939.43 646.21,948.58 689.5,955 C1053.67,1008.98 1154.16,1054.28 1517,992 C1536.2,988.7 1556.39,982.82 1574.83,976.42 " fill="none" id="B_iter-&gt;M_layer" style="stroke: #383838; stroke-width: 1.0;"/><polygon fill="#383838" points="1579.99,974.6,1570.1707,973.8374,1575.2774,976.2708,1572.844,981.3775,1579.99,974.6" style="stroke: #383838; stroke-width: 1.0;"/><!--MD5=[26eed10555e81bbc7b92ab11e34ae3a7]
link B_flex to M_layer--><path d="M944.04,764.43 C1076.24,792.18 1315.87,845.14 1517,904 C1533.02,908.69 1550.01,914.22 1566.14,919.76 " fill="none" id="B_flex-&gt;M_layer" style="stroke: #383838; stroke-width: 1.0;"/><polygon fill="#383838" points="1571.12,921.47,1563.9131,914.7573,1566.3925,919.8418,1561.308,922.3212,1571.12,921.47" style="stroke: #383838; stroke-width: 1.0;"/><!--MD5=[e9e3e1d10da084dacf4958e10ee031dd]
link B_flex to M_batch--><path d="M944.18,749.66 C1030.67,755.56 1158.72,766.7 1269,786 C1479.45,822.83 1528.01,851.08 1735,904 C1759.43,910.25 1785.83,917.04 1810.38,923.37 " fill="none" id="B_flex-&gt;M_batch" style="stroke: #383838; stroke-width: 1.0;"/><polygon fill="#383838" points="1815.26,924.63,1807.5368,918.5183,1810.4169,923.3871,1805.5482,926.2672,1815.26,924.63" style="stroke: #383838; stroke-width: 1.0;"/><!--MD5=[e60fd5b88f0a3758468ee067a7f48993]
link B_flex to M_viz--><path d="M944.23,723.75 C1056.99,702.76 1245.85,673 1410,673 C1410,673 1410,673 1645,673 C1849.94,673 2051.99,846.12 2126.72,917.64 " fill="none" id="B_flex-&gt;M_viz" style="stroke: #383838; stroke-width: 1.0;"/><polygon fill="#383838" points="2130.6,921.38,2126.8611,912.2684,2126.9868,917.9239,2121.3313,918.0496,2130.6,921.38" style="stroke: #383838; stroke-width: 1.0;"/><!--MD5=[b8aaabffd67764b98b666cc06a62e7d3]
link B_conv to M_import--><path d="M1156.5,620.03 C1156.5,724.49 1156.5,828.96 1156.5,933.43 " fill="none" id="B_conv-&gt;M_import" style="stroke: #383838; stroke-width: 1.0;"/><polygon fill="#383838" points="1156.5,938.72,1160.5,929.72,1156.5,933.72,1152.5,929.72,1156.5,938.72" style="stroke: #383838; stroke-width: 1.0;"/><!--MD5=[c1d85127f81570e94fea99a81558624b]
link B_conv to M_vox--><path d="M1174.07,620.03 C1217.98,681.07 1337.4,847.07 1387.45,916.65 " fill="none" id="B_conv-&gt;M_vox" style="stroke: #383838; stroke-width: 1.0;"/><polygon fill="#383838" points="1390.65,921.09,1388.6419,911.448,1387.7304,917.031,1382.1474,916.1195,1390.65,921.09" style="stroke: #383838; stroke-width: 1.0;"/><!--MD5=[8a6026637b209789707cb4f3a7ca22b0]
link B_conv to M_export--><path d="M1167.3,573.92 C1186.71,531.31 1234.36,440.75 1305,398 C1435.09,319.27 1490.94,345 1643,345 C1643,345 1643,345 1907.5,345 C2203.42,345 2348.59,792.13 2383.21,916.34 " fill="none" id="B_conv-&gt;M_export" style="stroke: #383838; stroke-width: 1.0;"/><polygon fill="#383838" points="2384.59,921.31,2386.0517,911.5702,2383.2599,916.4902,2378.3399,913.6984,2384.59,921.31" style="stroke: #383838; stroke-width: 1.0;"/><!--MD5=[6a3588496d612dc82688fe40505457ad]
link B_conv to M_viz--><path d="M1269.29,589.67 C1474.06,578.45 1899.2,566.06 2018,647 C2111,710.36 2143.02,852.5 2152.96,916.13 " fill="none" id="B_conv-&gt;M_viz" style="stroke: #383838; stroke-width: 1.0;"/><polygon fill="#383838" points="2153.75,921.31,2156.3412,911.8081,2152.9929,916.3676,2148.4334,913.0194,2153.75,921.31" style="stroke: #383838; stroke-width: 1.0;"/><!--MD5=[cdb938fc6ef93aad688db5e85ac4a9b7]
link B_ux to M_viz--><path d="M1717.23,484.29 C1799.77,486.22 1934.23,501.79 2018,576 C2121.56,667.75 2148.18,844.26 2154.84,916.25 " fill="none" id="B_ux-&gt;M_viz" style="stroke: #383838; stroke-width: 1.0;"/><polygon fill="#383838" points="2155.29,921.25,2158.478,911.9314,2154.8476,916.2696,2150.5094,912.6392,2155.29,921.25" style="stroke: #383838; stroke-width: 1.0;"/><!--MD5=[a37ba80e42d10aa1ed2728b5f2d18cfd]
link B_ux to M_batch--><path d="M1658.1,509.23 C1701.23,585.72 1838.84,829.79 1887.91,916.81 " fill="none" id="B_ux-&gt;M_batch" style="stroke: #383838; stroke-width: 1.0;"/><polygon fill="#383838" points="1890.46,921.33,1889.5233,911.5258,1888.0039,916.9748,1882.5549,915.4555,1890.46,921.33" style="stroke: #383838; stroke-width: 1.0;"/><!--MD5=[d87f426cfccddf4f7b24621d0c2ac70d]
link B_prod to M_export--><path d="M2018.1,256.57 C2089.46,254.88 2179.55,265.54 2238,319 C2328.52,401.78 2376.27,800.61 2388.38,916.41 " fill="none" id="B_prod-&gt;M_export" style="stroke: #383838; stroke-width: 1.0;"/><polygon fill="#383838" points="2388.89,921.39,2391.9427,912.0262,2388.3755,916.4165,2383.9851,912.8494,2388.89,921.39" style="stroke: #383838; stroke-width: 1.0;"/><!--MD5=[1ed455cd951bc8c0fe1d7e4188fa4267]
link M_import to M_vox--><!--MD5=[d912e97f7fd316b70786ccf858716715]
link M_vox to M_layer--><!--MD5=[e84ee0c5a2ba4724e99880899b7637d6]
link M_layer to M_batch--><!--MD5=[5387c25095cce99cbcb25b48a0986802]
link M_batch to M_viz--><!--MD5=[a542e6d06c1d4b2d9f0c13bccc3b987d]
link M_viz to M_export--><rect fill="#DDDDDD" height="91.4844" rx="5" ry="5" style="stroke: #000000; stroke-width: 1.0;" width="318" x="2210" y="1117"/><line style="stroke: none; stroke-width: 1.0;" x1="2216" x2="2336" y1="1130.1484" y2="1130.1484"/><line style="stroke: none; stroke-width: 1.0;" x1="2216" x2="2336" y1="1132.1484" y2="1132.1484"/><text fill="#000000" font-family="sans-serif" font-size="14" lengthAdjust="spacingAndGlyphs" textLength="58" x="2340" y="1134.4951">Notation</text><line style="stroke: none; stroke-width: 1.0;" x1="2402" x2="2522" y1="1130.1484" y2="1130.1484"/><line style="stroke: none; stroke-width: 1.0;" x1="2402" x2="2522" y1="1132.1484" y2="1132.1484"/><text fill="#000000" font-family="sans-serif" font-size="14" lengthAdjust="spacingAndGlyphs" textLength="214" x="2216" y="1151.292">• Dashed circles: Stakeholders</text><text fill="#000000" font-family="sans-serif" font-size="14" lengthAdjust="spacingAndGlyphs" textLength="246" x="2216" y="1167.5889">• Clouds: Goals / Expected benefits</text><text fill="#000000" font-family="sans-serif" font-size="14" lengthAdjust="spacingAndGlyphs" textLength="306" x="2216" y="1183.8857">• Rectangles: System contributions (means)</text><text fill="#000000" font-family="sans-serif" font-size="14" lengthAdjust="spacingAndGlyphs" textLength="188" x="2216" y="1200.1826">• Arrows: Contribution links</text><!--MD5=[730c72f3f08d0292ac43774026ef567c]
@startuml
left to right direction
skinparam monochrome true
skinparam shadowing false
skinparam defaultTextAlignment center
skinparam packageBorderStyle dashed
skinparam packageBackgroundColor white
skinparam cloud {
  RoundCorner 20
}
skinparam rectangle {
  RoundCorner 8
}

package "Researchers & Graduate Students" as STU {
  cloud "Edit voxels\nquickly" as G_edit
  cloud "Avoid full\nrebuilds" as G_avoid
  cloud "See material &\nmagnetization clearly" as G_viz_need
}

package "Research Assistants & Undergraduates" as RA {
  cloud "Prepare files\nreliably" as G_prepare
  cloud "Verify directions\nbefore print" as G_verify
}

package "Supervisors & Research Leads" as SUP {
  cloud "Handle larger\nCAD models" as G_large
  cloud "Increase research\nthroughput" as G_through
}

package "3D-Printer Technicians / Operators" as TECH {
  cloud "Receive printer-ready\nexports" as G_ready
}

package "University IT / Admin" as IT {
  cloud "Install/maintain with\nminimal overhead" as G_it
}

cloud "Faster iteration" as B_iter
cloud "Flexible re-magnetization" as B_flex
cloud "CAD → voxel grid conversion" as B_conv
cloud "User-friendly tool" as B_ux
cloud "Higher research productivity" as B_prod

rectangle "Expected Benefits" as EB {
}

B_iter -[hidden]-> B_flex
B_flex -[hidden]-> B_conv
B_conv -[hidden]-> B_ux
B_ux   -[hidden]-> B_prod

package "System contributions (means)" as MEANS {
  rectangle "Import CAD models" as M_import
  rectangle "Auto-voxelize by\nprinter settings" as M_vox
  rectangle "Per-layer magnetization\nvector editing" as M_layer
  rectangle "Batch edit voxel groups\n& directions" as M_batch
  rectangle "Visualize material &\nmagnetization maps" as M_viz
  rectangle "Export printer-ready files\n(with property metadata)" as M_export
}

G_edit  - -> B_iter
G_avoid - -> B_iter
G_viz_need - -> B_ux

G_prepare - -> B_conv
G_verify  - -> B_flex

G_large  - -> B_conv
G_through - -> B_prod

G_ready - -> B_conv
G_it    - -> B_ux

B_iter - -> M_import
B_iter - -> M_vox
B_iter - -> M_batch
B_iter - -> M_layer

B_flex - -> M_layer
B_flex - -> M_batch
B_flex - -> M_viz

B_conv - -> M_import
B_conv - -> M_vox
B_conv - -> M_export
B_conv - -> M_viz

B_ux   - -> M_viz
B_ux   - -> M_batch

B_prod - -> M_export

M_import -[hidden]-> M_vox
M_vox    -[hidden]-> M_layer
M_layer  -[hidden]-> M_batch
M_batch  -[hidden]-> M_viz
M_viz    -[hidden]-> M_export


legend right
== Notation ==
• Dashed circles: Stakeholders
• Clouds: Goals / Expected benefits
• Rectangles: System contributions (means)
• Arrows: Contribution links
endlegend
@enduml

PlantUML version 1.2020.02(Sun Mar 01 05:22:07 EST 2020)
(GPL source distribution)
Java Runtime: OpenJDK Runtime Environment
JVM: OpenJDK 64-Bit Server VM
Java Version: 21.0.8+9-Ubuntu-0ubuntu122.04.1
Operating System: Linux
Default Encoding: UTF-8
Language: en
Country: null
--></g></svg>